<svg xmlns="http://www.w3.org/2000/svg" width="197" height="25" viewBox="0 0 197 25">
    <g fill="none" fill-rule="evenodd">
        <path fill="#23C8FF" d="M9.922 14.259H4.215v7.283h5.707c2.517 0 3.927-1.543 3.927-3.659 0-2.114-1.41-3.624-3.927-3.624zM9.587 4.155H4.215v6.847h5.372c2.315 0 3.893-1.208 3.893-3.423 0-2.216-1.578-3.424-3.893-3.424zm.671 20.644H.59V.898h9.298c4.431 0 7.218 2.518 7.218 6.546 0 2.584-1.611 4.431-3.223 5.069 1.846.738 3.592 2.518 3.592 5.539 0 4.396-2.987 6.747-7.217 6.747zM30.702 4.155h-5.371v7.486h5.371c2.417 0 4.062-1.377 4.062-3.727 0-2.35-1.645-3.76-4.062-3.76zm4.196 20.644l-5.035-10.07H25.33v10.07h-3.625V.898h9.265c4.531 0 7.418 2.92 7.418 6.983 0 3.424-2.08 5.605-4.766 6.344l5.505 10.574h-4.23zM42.553 24.799h3.625V.898h-3.625zM65.581 22.28C63.77 24.196 61.52 25 59.001 25c-2.483 0-4.633-.906-6.277-2.552-2.35-2.349-2.317-5.001-2.317-9.6 0-4.599-.033-7.25 2.317-9.6 1.644-1.645 3.727-2.55 6.277-2.55 5.07 0 8.023 3.322 8.695 7.418h-3.66c-.603-2.618-2.349-4.162-5.035-4.162-1.409 0-2.685.57-3.524 1.476-1.175 1.276-1.444 2.619-1.444 7.418 0 4.8.27 6.177 1.444 7.452.839.906 2.115 1.445 3.524 1.445 1.578 0 2.955-.605 3.895-1.679.873-1.008 1.208-2.215 1.208-3.76v-1.342H59v-3.089h8.728v3.658c0 3.09-.57 5.07-2.148 6.748M85.253 24.799v-10.44h-9.702V24.8h-3.625V.898h3.625v10.205h9.702V.898h3.625v23.9h-3.625M102.038 4.155v20.644h-3.626V4.155h-6.578V.898h16.784v3.257h-6.58M118.126 25c-3.593 0-6.177-.838-8.46-3.155l2.417-2.384c1.746 1.745 3.66 2.284 6.11 2.284 3.122 0 4.934-1.343 4.934-3.66 0-1.04-.302-1.912-.939-2.484-.605-.57-1.209-.805-2.62-1.006l-2.819-.404c-1.947-.268-3.491-.94-4.532-1.913-1.174-1.108-1.745-2.618-1.745-4.566 0-4.161 3.021-7.015 7.989-7.015 3.156 0 5.371.806 7.42 2.719l-2.317 2.282c-1.477-1.408-3.19-1.846-5.203-1.846-2.82 0-4.365 1.612-4.365 3.727 0 .872.268 1.645.908 2.215.603.538 1.578.94 2.684 1.108l2.72.403c2.216.336 3.457.872 4.464 1.778 1.31 1.142 1.948 2.854 1.948 4.9 0 4.399-3.593 7.017-8.594 7.017M138.968 4.155h-5.237v7.956h5.237c2.517 0 4.229-1.444 4.229-3.962 0-2.517-1.712-3.994-4.23-3.994zm.2 11.245h-5.437v9.399h-3.626V.898h9.063c4.666 0 7.656 3.089 7.656 7.25 0 4.163-2.99 7.252-7.656 7.252z"/>
        <path fill="#FF1E3C" d="M160.416.866c-6.6 0-11.952 5.35-11.952 11.95s5.351 11.95 11.952 11.95c6.6 0 11.95-5.35 11.95-11.95s-5.35-11.95-11.95-11.95zm0 3.405c4.712 0 8.545 3.833 8.545 8.544 0 4.713-3.833 8.546-8.545 8.546-4.714 0-8.546-3.833-8.546-8.546 0-4.711 3.832-8.544 8.546-8.544z"/>
        <path fill="#23C8FF" d="M182.206 4.257V24.9h-3.626V4.257H172V1h16.785v3.257h-6.58"/>
        <path fill="#49BEE1" d="M193.86 1.387c-.68 0-1.261.242-1.743.726a2.385 2.385 0 0 0-.719 1.746c0 .688.239 1.274.715 1.758.48.485 1.061.727 1.746.727s1.267-.242 1.746-.727c.48-.484.72-1.07.72-1.758 0-.682-.24-1.264-.72-1.746a2.373 2.373 0 0 0-1.746-.726zm2.87 2.472a2.78 2.78 0 0 1-.84 2.036 2.76 2.76 0 0 1-2.03.843c-.795 0-1.47-.281-2.028-.843A2.785 2.785 0 0 1 191 3.859c0-.789.28-1.463.84-2.023A2.752 2.752 0 0 1 193.86 1c.794 0 1.47.279 2.03.836.56.557.84 1.232.84 2.023zm-2.12-.625c0-.229-.07-.382-.21-.46-.139-.079-.362-.118-.67-.118h-.472v1.14h.5c.234 0 .41-.023.527-.07.216-.085.324-.25.324-.492zm-.805-.957c.39 0 .677.038.86.114.325.135.487.4.487.796 0 .282-.103.489-.308.622-.11.07-.262.12-.457.152.247.039.428.142.543.309.114.166.172.329.172.488v.23c0 .073.002.151.007.235a.509.509 0 0 0 .028.164l.02.039h-.52l-.008-.031a.763.763 0 0 1-.008-.036l-.012-.101v-.25c0-.365-.099-.606-.297-.723-.117-.068-.322-.101-.617-.101h-.437v1.242h-.555V2.277h1.102z"/>
    </g>
</svg>
